HIERARCHY
ROOT newVegas:Hips
{
	OFFSET 0.000000 96.479958 0.000000
	CHANNELS 6 Xposition Yposition Zposition Xrotation Yrotation Zrotation
	JOINT newVegas:Pelvis
	{
		OFFSET 0.000000 0.000000 0.000000
		CHANNELS 3 Xrotation Yrotation Zrotation
		JOINT newVegas:LeftUpLeg
		{
			OFFSET 18.735201 -5.666702 -4.541200
			CHANNELS 3 Xrotation Yrotation Zrotation
			JOINT newVegas:LeftLeg
			{
				OFFSET -0.021200 -31.938179 0.493100
				CHANNELS 3 Xrotation Yrotation Zrotation
				JOINT newVegas:LeftFoot
				{
					OFFSET 0.021200 -31.938179 -4.336299
					CHANNELS 3 Xrotation Yrotation Zrotation
					JOINT newVegas:LeftToeBase
					{
						OFFSET 0.943001 -26.722000 15.023500
						CHANNELS 3 Xrotation Yrotation Zrotation
						End Site
						{
							OFFSET 0.000000 30.670183 0.000000
						}
					}
				}
				JOINT newVegas:Left_PantLeg
				{
					OFFSET 0.663870 -9.044666 -1.108900
					CHANNELS 3 Xrotation Yrotation Zrotation
					End Site
					{
						OFFSET 1.415995 20.635357 0.000000
					}
				}
			}
		}
		JOINT newVegas:RightUpLeg
		{
			OFFSET -18.735201 -5.666702 -4.541200
			CHANNELS 3 Xrotation Yrotation Zrotation
			JOINT newVegas:RightLeg
			{
				OFFSET 0.018946 -31.938133 0.493100
				CHANNELS 3 Xrotation Yrotation Zrotation
				JOINT newVegas:RightFoot
				{
					OFFSET -0.018946 -31.938126 -4.336299
					CHANNELS 3 Xrotation Yrotation Zrotation
					JOINT newVegas:RightToeBase
					{
						OFFSET -0.943001 -26.722004 15.023500
						CHANNELS 3 Xrotation Yrotation Zrotation
						End Site
						{
							OFFSET 0.000000 30.670187 0.000000
						}
					}
				}
				JOINT newVegas:Right_PantLeg
				{
					OFFSET -0.661674 -9.044716 -1.108900
					CHANNELS 3 Xrotation Yrotation Zrotation
					End Site
					{
						OFFSET -1.415958 20.635269 0.000000
					}
				}
			}
		}
	}
	JOINT newVegas:Spine
	{
		OFFSET 0.000000 10.199997 -0.299500
		CHANNELS 3 Xrotation Yrotation Zrotation
		JOINT newVegas:Spine1
		{
			OFFSET 0.000000 11.900002 -1.516600
			CHANNELS 3 Xrotation Yrotation Zrotation
			JOINT newVegas:Spine2
			{
				OFFSET 0.000000 13.600006 -2.842500
				CHANNELS 3 Xrotation Yrotation Zrotation
				JOINT newVegas:Neck
				{
					OFFSET 0.000000 9.624100 -2.890100
					CHANNELS 3 Xrotation Yrotation Zrotation
					JOINT newVegas:Head
					{
						OFFSET 0.000000 14.068802 -1.351900
						CHANNELS 3 Xrotation Yrotation Zrotation
						JOINT newVegas:Hair_Back
						{
							OFFSET 0.000000 3.231903 -17.524799
							CHANNELS 3 Xrotation Yrotation Zrotation
							End Site
							{
								OFFSET 0.000000 19.849884 0.000000
							}
						}
						JOINT newVegas:Hair_Front
						{
							OFFSET 0.000000 31.260406 4.573800
							CHANNELS 3 Xrotation Yrotation Zrotation
							JOINT newVegas:Hair_Front1
							{
								OFFSET 0.000000 2.284103 11.993300
								CHANNELS 3 Xrotation Yrotation Zrotation
								JOINT newVegas:Hair_Front2
								{
									OFFSET 0.000000 2.284103 11.993300
									CHANNELS 3 Xrotation Yrotation Zrotation
									End Site
									{
										OFFSET 0.000000 12.208862 0.000000
									}
								}
							}
						}
						JOINT newVegas:Jowel
						{
							OFFSET 0.000000 -7.458206 6.864100
							CHANNELS 3 Xrotation Yrotation Zrotation
							End Site
							{
								OFFSET 0.000000 19.849884 0.000000
							}
						}
					}
				}
				JOINT newVegas:LeftShoulder
				{
					OFFSET 15.263000 10.923401 -0.547700
					CHANNELS 3 Xrotation Yrotation Zrotation
					JOINT newVegas:LeftArm
					{
						OFFSET 25.438599 -2.830597 -13.032500
						CHANNELS 3 Xrotation Yrotation Zrotation
						JOINT newVegas:LeftForeArm
						{
							OFFSET 29.960503 0.000000 0.000000
							CHANNELS 3 Xrotation Yrotation Zrotation
							JOINT newVegas:LeftHand
							{
								OFFSET 27.849251 0.000000 0.000000
								CHANNELS 3 Xrotation Yrotation Zrotation
								JOINT newVegas:LeftHandThumb1
								{
									OFFSET 4.487587 -3.305161 6.305391
									CHANNELS 3 Xrotation Yrotation Zrotation
									JOINT newVegas:LeftHandThumb2
									{
										OFFSET 5.480453 -3.164139 3.164143
										CHANNELS 3 Xrotation Yrotation Zrotation
										JOINT newVegas:LeftHandThumb3
										{
											OFFSET 5.159721 -2.978973 2.978967
											CHANNELS 3 Xrotation Yrotation Zrotation
											End Site
											{
												OFFSET 2.494507 5.926697 1.738678
											}
										}
									}
								}
								JOINT newVegas:LeftHandIndex1
								{
									OFFSET 18.578728 -0.527832 5.208049
									CHANNELS 3 Xrotation Yrotation Zrotation
									JOINT newVegas:LeftHandIndex2
									{
										OFFSET 3.192009 0.000000 0.000000
										CHANNELS 3 Xrotation Yrotation Zrotation
										JOINT newVegas:LeftHandIndex3
										{
											OFFSET 3.835129 0.000000 0.000000
											CHANNELS 3 Xrotation Yrotation Zrotation
											End Site
											{
												OFFSET -0.034599 3.816971 0.371180
											}
										}
									}
								}
								JOINT newVegas:LeftHandMiddle1
								{
									OFFSET 18.476105 0.000000 0.000000
									CHANNELS 3 Xrotation Yrotation Zrotation
									JOINT newVegas:LeftHandMiddle2
									{
										OFFSET 3.324875 0.000000 0.000000
										CHANNELS 3 Xrotation Yrotation Zrotation
										JOINT newVegas:LeftHandMiddle3
										{
											OFFSET 4.596550 0.000000 0.000000
											CHANNELS 3 Xrotation Yrotation Zrotation
											End Site
											{
												OFFSET 0.057701 4.578827 0.399218
											}
										}
									}
								}
								JOINT newVegas:LeftHandRing1
								{
									OFFSET 17.732719 0.121887 -4.201567
									CHANNELS 3 Xrotation Yrotation Zrotation
									JOINT newVegas:LeftHandRing2
									{
										OFFSET 2.733170 0.000000 0.000000
										CHANNELS 3 Xrotation Yrotation Zrotation
										JOINT newVegas:LeftHandRing3
										{
											OFFSET 3.178268 0.000000 0.000000
											CHANNELS 3 Xrotation Yrotation Zrotation
											End Site
											{
												OFFSET 0.119102 3.170624 0.185394
											}
										}
									}
								}
								JOINT newVegas:LeftHandPinky1
								{
									OFFSET 15.989624 -0.606689 -7.535461
									CHANNELS 3 Xrotation Yrotation Zrotation
									JOINT newVegas:LeftHandPinky2
									{
										OFFSET 2.538986 0.000000 0.000000
										CHANNELS 3 Xrotation Yrotation Zrotation
										JOINT newVegas:LeftHandPinky3
										{
											OFFSET 2.593102 0.000000 0.000000
											CHANNELS 3 Xrotation Yrotation Zrotation
											End Site
											{
												OFFSET -0.150902 2.584198 0.152708
											}
										}
									}
								}
							}
							JOINT newVegas:Left_Sleeve
							{
								OFFSET 0.267448 -0.649796 0.577675
								CHANNELS 3 Xrotation Yrotation Zrotation
								End Site
								{
									OFFSET 0.000000 15.991241 0.000000
								}
							}
							JOINT newVegas:Left_CapeC
							{
								OFFSET 15.715958 -8.608795 -6.935905
								CHANNELS 3 Xrotation Yrotation Zrotation
								JOINT newVegas:Left_CapeC1
								{
									OFFSET 0.000000 -8.688499 0.000000
									CHANNELS 3 Xrotation Yrotation Zrotation
									End Site
									{
										OFFSET 0.000000 8.688499 0.000000
									}
								}
							}
						}
						JOINT newVegas:Left_CapeB
						{
							OFFSET 26.118385 -8.608795 -7.079235
							CHANNELS 3 Xrotation Yrotation Zrotation
							JOINT newVegas:Left_CapeB1
							{
								OFFSET 0.000000 -8.688499 0.000000
								CHANNELS 3 Xrotation Yrotation Zrotation
								End Site
								{
									OFFSET 0.000000 8.688499 0.000000
								}
							}
						}
						JOINT newVegas:Left_CapeA
						{
							OFFSET 5.115639 -8.608795 -10.395809
							CHANNELS 3 Xrotation Yrotation Zrotation
							JOINT newVegas:Left_CapeA1
							{
								OFFSET 0.000000 -8.688499 0.000000
								CHANNELS 3 Xrotation Yrotation Zrotation
								End Site
								{
									OFFSET 0.000000 8.688499 0.000000
								}
							}
						}
					}
				}
				JOINT newVegas:RightShoulder
				{
					OFFSET -15.263000 10.923401 -0.547700
					CHANNELS 3 Xrotation Yrotation Zrotation
					JOINT newVegas:RightArm
					{
						OFFSET -25.438599 -2.830597 -13.032500
						CHANNELS 3 Xrotation Yrotation Zrotation
						JOINT newVegas:RightForeArm
						{
							OFFSET -29.960503 0.000000 0.000000
							CHANNELS 3 Xrotation Yrotation Zrotation
							JOINT newVegas:RightHand
							{
								OFFSET -27.849251 0.000000 0.000000
								CHANNELS 3 Xrotation Yrotation Zrotation
								JOINT newVegas:RightHandThumb1
								{
									OFFSET -4.487587 -3.305161 6.305391
									CHANNELS 3 Xrotation Yrotation Zrotation
									JOINT newVegas:RightHandThumb2
									{
										OFFSET -5.480453 -3.164139 3.164143
										CHANNELS 3 Xrotation Yrotation Zrotation
										JOINT newVegas:RightHandThumb3
										{
											OFFSET -5.159721 -2.978973 2.978967
											CHANNELS 3 Xrotation Yrotation Zrotation
											End Site
											{
												OFFSET -2.494507 5.926697 1.738678
											}
										}
									}
								}
								JOINT newVegas:RightHandIndex1
								{
									OFFSET -18.578728 -0.527832 5.208049
									CHANNELS 3 Xrotation Yrotation Zrotation
									JOINT newVegas:RightHandIndex2
									{
										OFFSET -3.192009 0.000000 0.000000
										CHANNELS 3 Xrotation Yrotation Zrotation
										JOINT newVegas:RightHandIndex3
										{
											OFFSET -3.835129 0.000000 0.000000
											CHANNELS 3 Xrotation Yrotation Zrotation
											End Site
											{
												OFFSET 0.034599 3.816971 0.371180
											}
										}
									}
								}
								JOINT newVegas:RightHandMiddle1
								{
									OFFSET -18.476105 0.000000 0.000000
									CHANNELS 3 Xrotation Yrotation Zrotation
									JOINT newVegas:RightHandMiddle2
									{
										OFFSET -3.324875 0.000000 0.000000
										CHANNELS 3 Xrotation Yrotation Zrotation
										JOINT newVegas:RightHandMiddle3
										{
											OFFSET -4.596550 0.000000 0.000000
											CHANNELS 3 Xrotation Yrotation Zrotation
											End Site
											{
												OFFSET -0.057701 4.578827 0.399218
											}
										}
									}
								}
								JOINT newVegas:RightHandRing1
								{
									OFFSET -17.732719 0.121887 -4.201567
									CHANNELS 3 Xrotation Yrotation Zrotation
									JOINT newVegas:RightHandRing2
									{
										OFFSET -2.733170 0.000000 0.000000
										CHANNELS 3 Xrotation Yrotation Zrotation
										JOINT newVegas:RightHandRing3
										{
											OFFSET -3.178268 0.000000 0.000000
											CHANNELS 3 Xrotation Yrotation Zrotation
											End Site
											{
												OFFSET -0.119102 3.170624 0.185394
											}
										}
									}
								}
								JOINT newVegas:RightHandPinky1
								{
									OFFSET -15.989624 -0.606689 -7.535461
									CHANNELS 3 Xrotation Yrotation Zrotation
									JOINT newVegas:RightHandPinky2
									{
										OFFSET -2.538986 0.000000 0.000000
										CHANNELS 3 Xrotation Yrotation Zrotation
										JOINT newVegas:RightHandPinky3
										{
											OFFSET -2.593102 0.000000 0.000000
											CHANNELS 3 Xrotation Yrotation Zrotation
											End Site
											{
												OFFSET 0.150902 2.584198 0.152708
											}
										}
									}
								}
							}
							JOINT newVegas:Right_CapeC
							{
								OFFSET -15.715958 -8.608795 -6.935905
								CHANNELS 3 Xrotation Yrotation Zrotation
								JOINT newVegas:Right_CapeC1
								{
									OFFSET 0.000000 -8.688499 0.000000
									CHANNELS 3 Xrotation Yrotation Zrotation
									End Site
									{
										OFFSET 0.000000 8.688499 0.000000
									}
								}
							}
							JOINT newVegas:Right_Sleeve
							{
								OFFSET -0.267448 -0.649994 0.577675
								CHANNELS 3 Xrotation Yrotation Zrotation
								End Site
								{
									OFFSET 0.000000 15.991302 0.000000
								}
							}
						}
						JOINT newVegas:Right_CapeA
						{
							OFFSET -5.115540 -8.608795 -10.395824
							CHANNELS 3 Xrotation Yrotation Zrotation
							JOINT newVegas:Right_CapeA1
							{
								OFFSET 0.000000 -8.688499 0.000000
								CHANNELS 3 Xrotation Yrotation Zrotation
								End Site
								{
									OFFSET 0.000000 8.688499 0.000000
								}
							}
						}
						JOINT newVegas:Right_CapeB
						{
							OFFSET -26.118187 -8.608795 -7.079266
							CHANNELS 3 Xrotation Yrotation Zrotation
							JOINT newVegas:Right_CapeB1
							{
								OFFSET 0.000000 -8.688499 0.000000
								CHANNELS 3 Xrotation Yrotation Zrotation
								End Site
								{
									OFFSET 0.000000 8.688499 0.000000
								}
							}
						}
					}
				}
				JOINT newVegas:Left_Collar
				{
					OFFSET 18.625099 8.655502 8.828100
					CHANNELS 3 Xrotation Yrotation Zrotation
					JOINT newVegas:Left_Collar1
					{
						OFFSET 14.783401 10.540405 -1.259500
						CHANNELS 3 Xrotation Yrotation Zrotation
						End Site
						{
							OFFSET 0.000000 18.199875 0.000000
						}
					}
				}
				JOINT newVegas:Collar_Back
				{
					OFFSET 0.000000 15.630707 -20.132601
					CHANNELS 3 Xrotation Yrotation Zrotation
					End Site
					{
						OFFSET 0.000000 22.523010 0.000000
					}
				}
				JOINT newVegas:Left_Peck
				{
					OFFSET 17.239599 -5.132599 25.482599
					CHANNELS 3 Xrotation Yrotation Zrotation
					End Site
					{
						OFFSET 0.000000 22.523010 0.000000
					}
				}
				JOINT newVegas:Right_Peck
				{
					OFFSET -17.239599 -5.132202 25.482599
					CHANNELS 3 Xrotation Yrotation Zrotation
					End Site
					{
						OFFSET 0.000000 22.523010 0.000000
					}
				}
				JOINT newVegas:Right_Collar
				{
					OFFSET -18.625099 8.655792 8.828100
					CHANNELS 3 Xrotation Yrotation Zrotation
					JOINT newVegas:Right_Collar1
					{
						OFFSET -14.783401 10.539993 -1.259500
						CHANNELS 3 Xrotation Yrotation Zrotation
						End Site
						{
							OFFSET 0.000000 18.199631 0.000000
						}
					}
				}
			}
		}
		JOINT newVegas:Belly
		{
			OFFSET 0.000000 -6.540398 9.014299
			CHANNELS 3 Xrotation Yrotation Zrotation
			End Site
			{
				OFFSET 0.000000 11.566666 0.000000
			}
		}
	}
	JOINT newVegas:ElvisFacialAnim_Joint
	{
		OFFSET 1.000000 -95.330101 -8.825800
		CHANNELS 3 Xrotation Yrotation Zrotation
		End Site
		{
			OFFSET 0.000000 35.315800 0.000000
		}
	}
}
MOTION
Frames: 4
Frame Time: 0.033333
-0.338719 81.756561 6.181880 10.222837 -17.239838 4.024301 -0.000000 0.000001 0.000000 -61.322552 -5.603597 20.867978 66.214716 8.578222 -1.594566 9.664328 5.037109 -13.996548 0.000001 -0.000001 -0.000001 0.000001 0.000000 0.000002 -59.191703 -17.128426 5.186111 64.000204 6.036213 -10.718064 -16.152028 -23.651731 -8.024503 -0.000000 -0.000001 0.000000 0.000001 -0.000000 0.000000 11.907675 2.876468 6.186303 9.506461 3.290742 0.032043 9.590182 3.040797 -0.476611 -2.403305 0.339757 -1.163344 -2.403291 0.339757 -1.163347 0.000002 -0.000001 0.000001 -2.403296 0.339749 -1.163337 -2.403281 0.339773 -1.163344 -0.000001 0.000000 -0.000000 0.000002 -0.000001 0.000000 0.359168 -5.080311 -11.869582 -3.510112 -0.134194 -55.748793 0.000014 -49.349876 0.000008 -12.795058 -8.708227 -6.318302 -6.810695 -2.599101 -1.720818 8.345495 30.590286 2.798564 0.000003 -0.000000 -0.000005 1.842614 6.557289 -45.821301 4.652570 5.727416 -78.160197 0.000001 -0.000000 0.000002 2.150201 6.833781 -49.878904 4.652566 5.727399 -78.160197 -0.000000 0.000001 0.000000 4.499658 8.276378 -60.200946 4.676295 5.732310 -78.397881 -0.000001 0.000001 0.000002 2.518194 12.593500 -52.231444 4.652558 5.727389 -78.160197 0.000001 -0.000005 -0.000003 -0.000003 0.000001 0.000001 -0.000003 0.000001 0.000001 -0.000003 0.000001 0.000001 -0.000001 0.000003 0.000003 -0.000002 0.000003 0.000002 -0.000001 0.000003 0.000003 -0.000002 0.000004 0.000003 0.657595 10.278118 8.523271 8.878579 15.182378 26.176500 -0.000192 84.392123 0.000192 21.328734 9.047325 -9.007944 0.604722 -1.483893 3.039163 6.358350 -14.447605 -2.112223 0.000002 -0.000001 0.000001 1.740422 -5.869628 50.408087 4.358616 -4.647612 86.320170 -0.000001 -0.000001 -0.000001 3.626219 -7.079833 58.271909 4.349512 -4.646994 86.208148 0.000001 0.000000 0.000000 4.334444 -7.188757 66.499842 4.358783 -4.647605 86.322355 -0.000001 0.000001 0.000001 7.292351 -11.555125 76.337527 4.350032 -4.647021 86.214664 0.000000 0.000002 -0.000000 0.000001 0.000002 -0.000000 0.000001 0.000001 -0.000003 0.000001 0.000001 -0.000001 -0.000002 -0.000002 -0.000000 -0.000002 -0.000001 -0.000000 -0.000002 -0.000002 -0.000000 -0.000002 -0.000001 0.000001 -0.000003 -0.000000 -0.000000 -0.000003 -0.000000 -0.000000 -0.000003 -0.000000 -0.000000 -0.000003 -0.000000 -0.000000 -0.000003 -0.000000 -0.000000 -0.000003 -0.000000 -0.000000 -0.000003 -0.000000 -0.000000 -0.000000 0.000001 -0.000000 -0.000000 0.000001 0.000000 
-0.393367 82.616585 3.680012 10.959183 -17.632895 3.949825 0.000001 0.000000 -0.000000 -57.126609 -5.376531 21.985510 66.663234 7.663002 -1.652943 7.807553 4.592959 -19.346203 0.000001 -0.000000 0.000000 -0.000001 -0.000001 -0.000000 -58.829888 -17.702640 6.691581 58.277865 6.914449 -10.794386 -11.125546 -23.807289 -8.344157 -0.000000 0.000002 0.000000 0.000001 -0.000001 0.000000 11.527783 2.106807 4.561818 8.664791 3.378952 -0.314368 8.721283 3.092100 -0.888069 -2.603619 0.228431 -0.931805 -2.603630 0.228430 -0.931801 0.000001 0.000000 -0.000001 -2.603623 0.228449 -0.931808 -2.603626 0.228425 -0.931803 0.000001 -0.000000 -0.000000 0.000001 0.000000 -0.000001 0.320341 -5.804608 -9.247972 -4.464774 2.831269 -55.147781 -0.000005 -49.641535 -0.000009 -11.020371 -8.577437 -7.111405 -6.772539 -2.507298 -1.687470 8.358686 30.693125 2.805045 0.000001 -0.000002 -0.000005 1.870820 6.584334 -46.204631 4.678967 5.732863 -78.424498 0.000000 0.000008 -0.000001 2.175677 6.854967 -50.203936 4.674588 5.731952 -78.380799 0.000002 0.000003 -0.000002 4.534047 8.284441 -60.533453 4.700074 5.737109 -78.635749 -0.000001 0.000001 0.000002 2.546126 12.614206 -52.568933 4.664454 5.729875 -78.279432 0.000000 0.000000 0.000001 0.000002 -0.000002 -0.000003 0.000002 -0.000002 -0.000003 0.000001 -0.000002 -0.000003 0.000001 0.000004 -0.000000 0.000001 0.000003 -0.000001 0.000001 0.000004 -0.000000 0.000000 0.000004 0.000001 0.843474 9.518120 7.258129 9.763500 17.135560 28.466789 -0.000619 88.962469 0.000707 21.891197 9.018834 -10.073221 0.893257 -1.515196 3.491967 6.417986 -14.936401 -2.153994 0.000002 -0.000004 -0.000001 1.741767 -5.870744 50.429496 4.371953 -4.648436 86.484873 0.000004 -0.000001 -0.000001 3.633549 -7.081486 58.359247 4.362875 -4.647861 86.373001 0.000002 0.000001 0.000000 4.345553 -7.189598 66.629267 4.372139 -4.648451 86.487188 -0.000001 -0.000001 0.000000 7.305597 -11.558276 76.503808 4.363371 -4.647876 86.379381 -0.000000 0.000001 0.000001 -0.000002 0.000001 -0.000001 -0.000002 0.000004 -0.000003 -0.000002 0.000001 -0.000002 0.000001 -0.000003 -0.000000 0.000001 -0.000002 -0.000000 0.000001 -0.000003 -0.000000 0.000001 -0.000002 0.000001 0.000001 0.000000 0.000000 0.000001 0.000000 0.000000 0.000001 0.000000 0.000000 0.000001 0.000000 0.000000 0.000001 0.000000 0.000000 0.000001 0.000000 0.000000 0.000001 0.000000 0.000000 0.000000 0.000000 0.000000 0.000001 0.000000 -0.000000 
-0.488412 83.532097 0.749113 11.811819 -18.449809 3.891242 -0.000000 0.000001 -0.000000 -51.023624 -3.123275 22.481691 66.402628 6.871829 -1.672090 1.868259 6.959994 -22.718895 0.000001 -0.000000 0.000000 -0.000000 0.000001 0.000002 -57.669753 -18.294460 8.713011 50.734379 7.284004 -10.852389 -5.044512 -22.866433 -8.479022 -0.000000 -0.000002 -0.000000 0.000000 0.000003 -0.000001 10.517563 0.495612 3.003279 7.271823 3.642044 -0.770677 7.272767 3.366424 -1.411966 -3.122096 0.088337 -0.466529 -3.122074 0.088337 -0.466526 -0.000000 0.000000 0.000000 -3.122086 0.088347 -0.466532 -3.122079 0.088330 -0.466529 -0.000004 0.000000 -0.000000 -0.000000 0.000000 -0.000000 -0.214597 -6.550560 -6.508408 -3.164885 6.024436 -55.014490 0.000002 -50.393925 0.000007 -9.309786 -7.131847 -8.143395 -6.673445 -2.268089 -1.600912 8.393076 30.960964 2.821943 -0.000001 -0.000000 -0.000003 1.945558 6.654276 -47.208447 4.746118 5.746142 -79.095940 0.000001 0.000004 0.000000 2.241950 6.908975 -51.042362 4.729615 5.742927 -78.931257 0.000002 -0.000002 0.000002 4.623829 8.304503 -61.399378 4.760219 5.748806 -79.236751 0.000001 -0.000002 0.000000 2.620877 12.667848 -53.455861 4.690914 5.735263 -78.544259 0.000001 -0.000003 -0.000001 0.000001 -0.000001 -0.000003 0.000001 -0.000001 -0.000003 0.000000 -0.000000 -0.000003 0.000000 0.000000 0.000001 -0.000000 -0.000001 0.000000 0.000000 0.000000 0.000001 0.000000 -0.000000 0.000001 0.822591 7.969668 5.601111 11.436591 20.170606 31.874232 0.000024 94.339857 0.000023 22.970232 9.611927 -12.412920 1.644616 -1.580188 4.672958 6.572207 -16.209504 -2.260728 0.000003 -0.000003 -0.000001 1.742878 -5.871651 50.447326 4.406727 -4.650432 86.913816 -0.000005 0.000002 0.000001 3.650861 -7.085276 58.565689 4.397677 -4.649926 86.802245 -0.000000 0.000000 -0.000001 4.373611 -7.191557 66.956440 4.406940 -4.650443 86.916473 -0.000001 0.000001 -0.000000 7.340052 -11.566219 76.936815 4.398141 -4.649947 86.808282 0.000001 -0.000000 -0.000000 -0.000002 0.000002 -0.000002 -0.000001 -0.000003 0.000002 -0.000002 0.000001 -0.000003 -0.000001 -0.000002 -0.000003 -0.000001 -0.000002 -0.000002 -0.000001 -0.000002 -0.000003 -0.000001 -0.000001 -0.000002 0.000001 0.000000 0.000000 0.000001 0.000000 0.000000 0.000001 0.000000 0.000000 0.000001 0.000000 0.000000 0.000001 0.000000 0.000000 0.000001 0.000000 0.000000 0.000001 0.000000 0.000000 0.000000 0.000001 -0.000001 -0.000000 0.000001 -0.000000 
-0.718983 84.990883 -2.377405 12.871795 -19.517534 3.952219 0.000000 0.000000 -0.000000 -40.630671 2.728940 21.310646 60.368996 6.487403 -1.640351 -11.793755 12.500460 -22.261263 0.000001 -0.000001 0.000000 -0.000000 0.000000 0.000001 -54.028692 -18.529552 11.527914 38.867072 7.980192 -10.663822 2.848048 -21.322638 -8.837985 -0.000000 -0.000000 0.000000 -0.000000 -0.000002 -0.000000 9.385731 -0.946175 1.447759 6.340181 3.838312 -0.893053 6.313963 3.667515 -1.510339 -3.833308 -0.002950 -0.087892 -3.833332 -0.002954 -0.087888 -0.000002 -0.000000 -0.000000 -3.833316 -0.002945 -0.087893 -3.833318 -0.002948 -0.087891 -0.000001 -0.000000 -0.000000 -0.000002 -0.000000 0.000000 -0.800020 -7.305265 -3.811522 -2.006407 9.587245 -55.753912 0.000010 -51.429480 0.000016 -7.679982 -5.080926 -9.466732 -6.535881 -1.934236 -1.480910 8.441043 31.334586 2.845265 -0.000001 0.000002 -0.000001 2.052711 6.750395 -48.620333 4.836453 5.762726 -79.996992 -0.000000 0.000003 -0.000000 2.335211 6.982285 -52.205987 4.801447 5.756457 -79.648332 0.000000 -0.000003 -0.000000 4.749547 8.330253 -62.607242 4.840418 5.763398 -80.036348 0.000003 0.000001 0.000000 2.728467 12.741379 -54.703849 4.718227 5.740698 -78.817514 0.000002 -0.000003 -0.000001 -0.000001 -0.000001 -0.000002 -0.000001 -0.000001 -0.000002 -0.000002 -0.000000 -0.000002 0.000000 -0.000002 -0.000003 -0.000001 -0.000002 -0.000003 0.000000 -0.000002 -0.000003 -0.000001 -0.000001 -0.000002 0.564123 6.543309 4.660430 13.080843 23.241711 34.429505 -0.000623 99.011167 0.000578 23.539456 11.809298 -14.902059 2.692236 -1.646379 6.322669 6.784925 -17.985560 -2.404840 0.000004 0.000000 -0.000002 1.739430 -5.868811 50.392518 4.455230 -4.652796 87.512045 -0.000000 -0.000002 -0.000002 3.671308 -7.089698 58.809431 4.446205 -4.652386 87.400952 0.000003 0.000000 -0.000000 4.410981 -7.193938 67.392097 4.455499 -4.652795 87.515166 0.000002 0.000001 0.000001 7.388234 -11.576921 77.540768 4.446644 -4.652393 87.406511 -0.000003 0.000001 0.000001 -0.000003 0.000001 0.000003 0.000001 -0.000000 0.000002 -0.000003 0.000001 -0.000000 0.000003 0.000003 -0.000000 0.000003 0.000004 -0.000000 0.000003 0.000003 -0.000000 0.000003 0.000004 0.000001 0.000002 0.000000 -0.000001 0.000002 0.000000 -0.000001 0.000002 0.000000 -0.000001 0.000002 0.000000 -0.000001 0.000002 0.000000 -0.000001 0.000002 0.000000 -0.000001 0.000002 0.000000 -0.000001 0.000001 -0.000002 0.000000 0.000000 0.000000 -0.000000 
